<svg id="visual" viewBox="0 0 1440 320" width="1440" height="320" xmlns="http://www.w3.org/2000/svg" xmlns:xlink="http://www.w3.org/1999/xlink" version="1.1"><path d="M0 278L34.3 277.2C68.7 276.3 137.3 274.7 205.8 272.8C274.3 271 342.7 269 411.2 260.3C479.7 251.7 548.3 236.3 617 236.5C685.7 236.7 754.3 252.3 823 260.5C891.7 268.7 960.3 269.3 1028.8 259.8C1097.3 250.3 1165.7 230.7 1234.2 228.5C1302.7 226.3 1371.3 241.7 1405.7 249.3L1440 257L1440 321L1405.7 321C1371.3 321 1302.7 321 1234.2 321C1165.7 321 1097.3 321 1028.8 321C960.3 321 891.7 321 823 321C754.3 321 685.7 321 617 321C548.3 321 479.7 321 411.2 321C342.7 321 274.3 321 205.8 321C137.3 321 68.7 321 34.3 321L0 321Z" fill="#FFFFFF" stroke-linecap="round" stroke-linejoin="miter"></path></svg>