<svg id="visual" viewBox="0 0 900 600" width="900" height="600" xmlns="http://www.w3.org/2000/svg" xmlns:xlink="http://www.w3.org/1999/xlink" version="1.1"><rect x="0" y="0" width="900" height="600" fill="#361999"></rect><path d="M0 462L16.7 454C33.3 446 66.7 430 100 430.3C133.3 430.7 166.7 447.3 200 462.2C233.3 477 266.7 490 300 490C333.3 490 366.7 477 400 473.8C433.3 470.7 466.7 477.3 500 464.8C533.3 452.3 566.7 420.7 600 419.8C633.3 419 666.7 449 700 468.8C733.3 488.7 766.7 498.3 800 484.7C833.3 471 866.7 434 883.3 415.5L900 397L900 601L883.3 601C866.7 601 833.3 601 800 601C766.7 601 733.3 601 700 601C666.7 601 633.3 601 600 601C566.7 601 533.3 601 500 601C466.7 601 433.3 601 400 601C366.7 601 333.3 601 300 601C266.7 601 233.3 601 200 601C166.7 601 133.3 601 100 601C66.7 601 33.3 601 16.7 601L0 601Z" fill="#ff6495" stroke-linecap="round" stroke-linejoin="miter"></path></svg>